<?xml version="1.0" standalone="no"?>
<!DOCTYPE svg PUBLIC "-//W3C//DTD SVG 20010904//EN"
 "http://www.w3.org/TR/2001/REC-SVG-20010904/DTD/svg10.dtd">
<svg version="1.0" xmlns="http://www.w3.org/2000/svg"
 width="471.000000pt" height="531.000000pt" viewBox="0 0 471.000000 531.000000"
 preserveAspectRatio="xMidYMid meet">

<g transform="translate(0.000000,531.000000) scale(0.100000,-0.100000)"
fill="#000000" stroke="none">
<path d="M1260 5134 c0 -86 3 -106 19 -125 28 -35 37 -16 23 49 -7 32 -12 76
-12 98 0 22 -7 49 -15 60 -13 17 -14 9 -15 -82z"/>
<path d="M3300 5138 c-11 -18 -23 -54 -26 -80 -11 -84 -45 -103 -58 -33 -4 20
-13 35 -21 35 -18 0 -45 -39 -45 -65 0 -40 28 -65 73 -65 23 0 47 4 54 8 7 4
16 44 21 88 5 44 17 94 26 112 22 42 2 42 -24 0z"/>
<path d="M1497 5032 c-20 -31 -41 -45 -103 -71 -116 -48 -128 -49 -150 -11
-11 17 -33 40 -50 51 -53 32 -58 22 -18 -37 25 -36 26 -44 20 -111 -3 -44 -2
-73 4 -73 5 0 33 21 62 47 67 59 132 100 172 108 107 22 106 21 106 75 0 27
-4 51 -9 54 -5 3 -20 -11 -34 -32z"/>
<path d="M2995 4973 c-3 -26 -8 -65 -10 -85 -6 -46 4 -48 33 -8 27 36 31 37
78 5 30 -21 49 -25 106 -25 54 0 70 -3 75 -16 3 -9 -3 -56 -14 -105 -13 -58
-16 -88 -9 -86 21 7 76 88 87 130 6 23 24 59 41 80 16 21 28 41 25 44 -3 3
-29 0 -57 -6 -114 -24 -188 -7 -279 66 -25 20 -51 41 -58 45 -8 7 -13 -4 -18
-39z"/>
<path d="M1298 4825 l-37 -25 24 -42 c28 -50 32 -102 10 -155 -20 -47 -12 -52
28 -22 72 54 159 109 172 109 14 0 18 -15 30 -111 3 -25 19 -74 35 -108 41
-85 40 -89 -17 -84 l-48 4 55 -30 c51 -28 90 -39 90 -26 0 3 -21 61 -47 128
-45 115 -47 128 -48 220 0 53 -1 97 -3 97 -2 0 -22 -11 -46 -25 -64 -37 -127
-58 -140 -44 -8 7 5 24 44 59 l55 49 -37 -6 c-38 -6 -73 10 -62 28 10 17 -21
8 -58 -16z"/>
<path d="M3015 4806 c-26 -26 -41 -67 -32 -90 3 -8 29 -22 57 -31 38 -13 59
-27 80 -57 l30 -40 10 26 c16 43 13 84 -8 90 -29 9 -92 72 -92 91 0 14 7 16
43 10 39 -5 41 -5 23 10 -30 23 -83 19 -111 -9z"/>
<path d="M2735 4650 c-3 -5 -1 -10 4 -10 6 0 11 5 11 10 0 6 -2 10 -4 10 -3 0
-8 -4 -11 -10z"/>
<path d="M3005 4591 l-40 -19 63 -1 c62 -1 78 10 43 29 -24 12 -18 13 -66 -9z"/>
<path d="M1838 4540 c-3 -8 -14 -43 -23 -76 l-17 -61 27 -62 c32 -71 29 -79
-43 -106 -26 -10 -78 -33 -116 -51 -92 -45 -97 -45 -111 -4 -10 30 -16 35 -48
38 l-37 3 0 -70 c0 -38 -3 -76 -6 -85 -8 -20 -44 -20 -108 -1 -27 8 -51 13
-54 11 -2 -3 1 -19 7 -37 23 -68 7 -113 -87 -233 -52 -65 -92 -128 -92 -142 0
-13 208 197 231 233 15 24 18 41 14 67 -6 29 -3 36 14 46 12 6 31 8 42 5 36
-12 66 3 156 76 101 82 124 94 219 109 135 22 131 17 82 113 -26 51 -33 77
-38 152 -3 50 -9 83 -12 75z"/>
<path d="M2849 4511 c24 -46 39 -53 93 -44 38 6 40 7 22 20 -26 20 -111 63
-124 63 -6 0 -2 -17 9 -39z"/>
<path d="M2640 4502 c-24 -15 -65 -48 -90 -74 -45 -46 -45 -46 -130 -53 -86
-8 -150 -26 -150 -44 0 -13 70 -24 160 -25 41 -1 89 -5 106 -10 30 -8 31 -6
49 41 9 26 39 78 66 116 65 90 64 95 -11 49z"/>
<path d="M2225 4460 l-70 -52 50 5 c28 3 73 12 100 20 37 11 65 12 105 6 75
-12 90 -6 90 38 0 34 -1 35 -27 27 -32 -9 -48 -9 -123 1 -55 7 -55 7 -125 -45z"/>
<path d="M3012 4437 c-13 -37 -16 -225 -2 -192 4 11 15 47 25 80 10 34 32 79
52 103 l34 42 -48 0 c-46 0 -50 -2 -61 -33z"/>
<path d="M4397 4383 c-3 -5 -2 -32 0 -60 7 -64 22 -68 58 -16 32 49 32 59 -6
72 -38 13 -46 14 -52 4z"/>
<path d="M2876 4340 c-41 -46 -48 -71 -13 -48 23 16 63 76 55 84 -3 2 -22 -14
-42 -36z"/>
<path d="M1682 4303 c-17 -26 -29 -49 -26 -52 8 -8 53 41 63 70 15 44 -3 35
-37 -18z"/>
<path d="M4245 4306 c-77 -36 -93 -60 -109 -159 -18 -107 -36 -139 -100 -173
-28 -15 -66 -38 -84 -51 -32 -24 -33 -26 -27 -78 10 -78 -4 -82 -136 -44 -224
64 -235 53 -100 -102 38 -44 74 -99 86 -128 22 -57 35 -51 35 16 0 36 -7 50
-55 106 -30 36 -51 67 -48 71 14 14 41 3 98 -40 55 -41 64 -45 110 -42 46 3
51 6 67 38 13 24 18 59 18 111 0 86 1 88 93 139 74 41 92 66 106 141 12 68 43
129 90 173 54 51 36 60 -44 22z"/>
<path d="M2020 4311 c0 -11 55 -31 86 -31 29 0 31 15 5 30 -24 12 -91 13 -91
1z"/>
<path d="M4015 4241 c-47 -22 -89 -64 -104 -104 -13 -33 -13 -163 -1 -192 5
-11 9 -15 9 -10 6 56 23 151 32 166 5 11 32 34 60 50 35 22 51 40 57 62 15 52
7 56 -53 28z"/>
<path d="M648 4184 c-5 -4 -8 -28 -7 -53 l1 -46 9 34 c11 36 9 77 -3 65z"/>
<path d="M3155 4161 c-3 -6 1 -13 8 -18 22 -12 37 -48 37 -86 l0 -33 113 4
c62 2 123 10 137 17 28 15 76 63 69 70 -3 2 -33 -5 -68 -15 -34 -11 -74 -18
-87 -15 -13 3 -34 7 -47 10 -13 2 -43 20 -68 40 -43 34 -82 45 -94 26z"/>
<path d="M510 4102 c0 -14 49 -56 57 -49 3 4 -4 18 -17 32 -24 25 -40 32 -40
17z"/>
<path d="M962 4055 c-11 -14 -32 -57 -47 -95 -36 -94 -44 -99 -92 -56 l-39 35
-22 -72 c-25 -82 -26 -97 -12 -97 6 0 20 21 30 46 18 41 22 45 37 33 33 -28
53 -91 53 -171 0 -43 4 -78 9 -78 4 0 20 26 33 58 21 48 27 81 33 192 5 98 12
147 26 179 23 52 19 62 -9 26z"/>
<path d="M1200 4039 c-13 -24 -4 -41 10 -19 10 16 13 40 5 40 -2 0 -9 -9 -15
-21z"/>
<path d="M3472 4012 c-10 -7 -10 -15 -2 -36 5 -15 10 -41 10 -57 0 -22 5 -29
19 -29 20 0 31 34 31 96 0 29 -4 34 -22 34 -13 0 -29 -4 -36 -8z"/>
<path d="M660 3979 c0 -46 -15 -54 -50 -29 -17 12 -33 20 -36 17 -2 -2 14 -42
36 -88 22 -45 40 -91 40 -101 0 -32 19 -19 29 20 21 74 41 164 41 179 0 10 -6
13 -16 9 -9 -4 -23 -1 -30 5 -11 9 -14 7 -14 -12z"/>
<path d="M3816 3893 c-13 -14 -5 -33 14 -33 11 0 20 6 20 14 0 15 -24 28 -34
19z"/>
<path d="M1088 3853 c-33 -21 -54 -68 -63 -148 -8 -59 -7 -60 12 -42 32 28 71
108 78 160 4 26 6 47 4 47 -2 0 -16 -8 -31 -17z"/>
<path d="M2050 3850 c-535 -115 -853 -541 -853 -1140 1 -572 340 -1042 848
-1176 91 -24 117 -27 280 -27 164 0 189 3 280 27 366 99 634 352 750 710 38
118 49 203 49 386 1 147 -2 173 -22 235 -86 258 -245 452 -462 564 -445 230
-997 84 -1191 -315 -51 -105 -69 -191 -68 -334 0 -197 35 -335 115 -452 122
-180 297 -274 529 -285 138 -6 229 11 343 67 200 99 332 316 332 548 0 96 -32
159 -99 195 -90 49 -140 28 -149 -61 -3 -39 1 -59 24 -103 39 -75 38 -142 -3
-231 -159 -344 -638 -334 -848 17 -81 135 -103 281 -66 428 30 117 67 183 147
263 125 126 259 175 477 175 112 0 147 -4 221 -26 225 -65 390 -201 486 -400
62 -128 74 -190 67 -358 -5 -153 -24 -224 -93 -357 -88 -170 -235 -310 -419
-401 -129 -63 -231 -89 -372 -96 -489 -24 -844 297 -953 862 -38 197 -23 356
50 541 163 413 596 658 1084 613 159 -15 281 -50 421 -119 180 -90 318 -203
435 -357 58 -77 144 -242 191 -368 l34 -90 3 43 c8 104 -51 293 -135 437 -170
291 -533 521 -932 590 -122 22 -391 19 -501 -5z"/>
<path d="M3944 3595 c-16 -12 -16 -14 -3 -15 9 0 22 7 29 15 16 19 0 19 -26 0z"/>
<path d="M3977 3533 c-4 -3 -7 -13 -7 -21 0 -12 3 -12 15 -2 8 7 15 16 15 21
0 11 -14 12 -23 2z"/>
<path d="M1012 3454 c-13 -25 -31 -48 -42 -51 -11 -3 -22 -18 -25 -35 -8 -37
4 -188 15 -188 9 0 42 94 64 185 34 141 29 174 -12 89z"/>
<path d="M3903 3393 c-54 -5 -57 -28 -8 -49 47 -19 52 -18 64 17 14 40 14 39
-1 37 -7 -1 -32 -3 -55 -5z"/>
<path d="M3934 3198 c7 -35 25 -180 27 -213 0 -11 7 5 15 35 8 30 32 86 54
124 22 38 40 73 40 78 0 5 -19 -4 -42 -21 -23 -17 -45 -31 -49 -31 -4 0 -12
14 -18 30 -14 42 -36 40 -27 -2z"/>
<path d="M784 2414 c-21 -48 -60 -114 -86 -145 -43 -51 -46 -57 -28 -62 13 -3
22 -17 26 -36 4 -17 12 -31 19 -31 7 0 32 26 56 57 l42 57 37 -41 c23 -26 43
-65 55 -104 20 -66 57 -119 82 -119 17 0 12 23 -23 92 -45 89 -86 203 -113
312 l-27 108 -40 -88z"/>
<path d="M3860 2316 c0 -9 5 -16 10 -16 6 0 10 4 10 9 0 6 -4 13 -10 16 -5 3
-10 -1 -10 -9z"/>
<path d="M3832 2093 c-7 -37 -10 -92 -6 -149 5 -67 2 -105 -11 -156 -9 -37
-14 -71 -11 -76 3 -5 27 -15 53 -23 54 -15 120 -74 142 -127 12 -29 12 -35 -5
-53 -18 -20 -18 -21 26 -62 l45 -42 3 49 c2 27 -4 81 -14 119 -22 91 -15 239
14 316 12 30 20 57 17 59 -2 2 -36 -16 -75 -42 -68 -45 -89 -70 -52 -64 46 7
57 -48 17 -87 -32 -33 -68 -32 -95 3 -19 23 -21 33 -14 77 14 81 9 246 -7 284
l-14 34 -13 -60z"/>
<path d="M438 2083 c-21 -8 -38 -19 -38 -24 0 -12 14 -11 27 2 20 20 43 2 43
-33 1 -41 14 -21 24 35 8 42 2 45 -56 20z"/>
<path d="M210 2011 c-8 -14 -39 -60 -67 -103 -29 -43 -53 -81 -53 -83 0 -12
21 -3 49 21 40 33 57 26 65 -28 4 -27 27 -76 57 -127 l51 -82 22 63 c13 35 27
72 33 83 15 28 43 166 42 207 0 29 -4 24 -23 -32 -26 -75 -40 -105 -72 -142
l-22 -28 -25 30 c-21 24 -26 44 -32 117 -10 139 -8 132 -25 104z"/>
<path d="M841 2000 c-1 -30 13 -54 27 -49 6 3 3 18 -8 39 -18 33 -19 33 -19
10z"/>
<path d="M574 1978 c-22 -24 -25 -29 -9 -23 11 4 41 7 68 6 26 -1 47 0 47 3 0
5 -64 46 -72 46 -2 0 -17 -14 -34 -32z"/>
<path d="M3774 1939 c-9 -18 -51 -69 -93 -114 -43 -44 -92 -106 -110 -137 -18
-32 -48 -71 -67 -87 l-36 -28 34 -6 c18 -3 54 -9 79 -12 l46 -7 8 59 c9 73 31
125 81 185 22 26 50 75 62 109 25 69 23 89 -4 38z"/>
<path d="M1010 1942 c0 -10 21 -32 32 -32 16 0 8 19 -12 30 -11 6 -20 7 -20 2z"/>
<path d="M523 1869 c-13 -17 -43 -75 -43 -85 0 -13 32 20 46 48 17 33 15 58
-3 37z"/>
<path d="M1016 1808 c4 -7 13 -44 18 -83 l11 -70 58 -3 c60 -3 77 11 33 28
-32 12 -40 26 -46 85 -5 50 -5 50 -44 53 -29 3 -36 0 -30 -10z"/>
<path d="M4125 1810 c-3 -5 -1 -18 4 -27 9 -16 10 -14 11 10 0 28 -5 34 -15
17z"/>
<path d="M4310 1751 c-28 -8 -29 -13 -9 -58 l13 -33 39 38 38 37 37 -21 c26
-15 38 -30 40 -48 2 -18 18 -38 50 -61 26 -19 51 -35 55 -35 14 0 -36 81 -78
127 -50 55 -114 74 -185 54z"/>
<path d="M4154 1698 c-59 -64 -59 -66 11 -141 l64 -68 52 27 c42 21 62 25 101
22 57 -6 84 -27 93 -74 3 -19 19 -50 35 -68 31 -35 123 -81 141 -70 16 9 -20
44 -67 65 -50 23 -68 43 -84 94 -24 78 -77 145 -113 145 -12 0 -40 -14 -61
-30 -22 -17 -50 -30 -63 -30 -32 0 -73 43 -74 77 -1 15 -4 38 -8 51 l-6 24
-21 -24z"/>
<path d="M160 1667 c0 -39 4 -49 25 -63 14 -9 27 -15 29 -13 5 5 -36 105 -47
115 -4 4 -7 -14 -7 -39z"/>
<path d="M245 1510 c3 -5 8 -10 11 -10 2 0 4 5 4 10 0 6 -5 10 -11 10 -5 0 -7
-4 -4 -10z"/>
<path d="M1409 1388 c22 -40 53 -81 68 -91 31 -19 124 -49 131 -42 2 2 -11 17
-29 32 -19 15 -70 61 -115 101 -45 39 -85 72 -89 72 -3 0 12 -33 34 -72z"/>
<path d="M3245 1360 c-128 -99 -208 -137 -332 -155 -67 -10 -123 -26 -167 -46
l-67 -31 73 -45 72 -44 38 44 c26 31 55 51 95 67 32 13 81 35 108 50 28 15 61
31 75 35 14 4 48 27 77 51 28 24 56 44 61 44 6 0 13 -32 17 -71 8 -78 24 -77
25 1 0 25 6 73 14 108 7 34 10 62 7 62 -3 0 -46 -32 -96 -70z"/>
<path d="M1305 1365 c-4 -16 -14 -56 -22 -89 -8 -32 -12 -60 -10 -63 3 -2 15
10 27 27 l23 32 36 -35 c32 -32 44 -36 111 -42 79 -8 102 -18 93 -41 -6 -17
32 -20 42 -4 12 19 -15 38 -88 66 -72 27 -116 63 -178 144 l-27 35 -7 -30z"/>
<path d="M3168 1154 c-40 -37 -79 -73 -87 -80 -12 -11 -8 -16 30 -33 24 -11
63 -35 86 -52 24 -18 46 -30 49 -26 4 3 -8 33 -25 66 l-31 60 25 37 c27 39 41
81 32 90 -3 4 -39 -24 -79 -62z"/>
<path d="M1764 1181 c-50 -37 -99 -89 -91 -97 3 -3 27 2 52 12 46 17 47 17 92
-5 44 -21 54 -22 180 -15 134 7 165 16 96 28 -67 12 -159 46 -207 76 -58 37
-73 37 -122 1z"/>
<path d="M1179 1106 c-24 -18 -70 -48 -102 -66 -32 -18 -56 -37 -54 -43 6 -20
81 -52 181 -77 55 -14 101 -29 103 -35 1 -5 -8 -23 -21 -39 l-23 -30 -35 22
c-64 40 -169 22 -223 -38 -17 -18 -21 -39 -23 -127 -3 -89 -1 -113 18 -163 13
-34 19 -67 15 -79 -3 -11 -33 -44 -66 -72 -51 -45 -74 -79 -53 -79 3 0 35 21
70 47 79 58 84 73 84 244 0 141 6 158 73 194 30 16 38 17 51 6 24 -20 39 -89
31 -148 -10 -83 21 -68 48 24 23 77 32 91 115 175 51 52 71 79 61 82 -8 2 -36
12 -64 20 -81 26 -115 51 -115 85 0 31 47 81 76 81 23 0 107 -45 128 -69 l19
-21 24 22 c25 23 30 38 12 38 -5 0 -52 18 -104 40 -121 52 -165 53 -226 6z"/>
<path d="M2453 1090 c-35 -14 -28 -31 7 -19 17 6 30 15 30 20 0 11 -8 11 -37
-1z"/>
<path d="M2145 998 c-40 -6 -66 -16 -77 -30 -41 -47 -9 -50 80 -8 34 16 62 34
62 40 0 5 -1 9 -2 9 -2 -1 -30 -6 -63 -11z"/>
<path d="M3425 969 c-56 -57 -112 -88 -186 -101 -57 -11 -61 -13 -34 -19 17
-4 56 -7 88 -8 66 -1 74 -10 58 -67 -9 -32 -7 -43 11 -76 12 -21 25 -38 29
-38 4 0 15 32 24 71 19 87 40 129 99 200 48 58 48 59 -19 73 -26 5 -36 0 -70
-35z"/>
<path d="M1920 980 c0 -6 7 -13 15 -16 21 -8 67 4 60 16 -8 13 -75 13 -75 0z"/>
<path d="M2320 982 c0 -13 68 -72 83 -72 7 0 36 11 66 25 l54 25 48 -45 c52
-48 77 -55 101 -27 33 38 32 45 -1 37 -26 -5 -41 -1 -81 25 l-50 32 -66 -13
c-64 -13 -69 -12 -136 16 -10 4 -18 3 -18 -3z"/>
<path d="M1107 662 c-10 -10 -17 -29 -17 -43 0 -23 0 -23 31 8 17 17 28 36 25
42 -10 16 -20 14 -39 -7z"/>
<path d="M3317 547 l48 -54 59 28 c33 16 63 26 67 24 4 -3 3 -22 -1 -42 -5
-21 -7 -39 -4 -42 5 -6 6 -5 37 53 37 68 36 76 -12 64 -28 -7 -61 -6 -123 6
-127 24 -127 24 -71 -37z"/>
<path d="M3505 345 c-46 -45 -26 -90 57 -125 29 -12 79 -42 111 -67 31 -24 57
-38 57 -31 -1 22 -70 109 -102 126 -16 10 -41 26 -55 36 l-26 20 22 17 c25 20
27 35 5 43 -28 11 -44 6 -69 -19z"/>
</g>
</svg>
